<?xml version="1.0" encoding="UTF-8" standalone="no"?>
<!-- Created with Inkscape (http://www.inkscape.org/) -->

<svg
   width="175.30484"
   height="70.070312"
   viewBox="0 0 46.382738 18.539437"
   version="1.1"
   id="svg1"
   xmlns:xlink="http://www.w3.org/1999/xlink"
   xmlns="http://www.w3.org/2000/svg"
   xmlns:svg="http://www.w3.org/2000/svg">
  <defs
     id="defs1">
    <symbol
       id="sjjb-poi.svg:embassy2"
       viewBox="0 0 497.85098 473.64472">
      <title
         id="title7">Embassy 2</title>
      <path
         d="M 6.9409264,1.5304946e-4 A 2.1089138,2.1089138 0 0 0 5.8413174,0.32632505 C 5.5004164,0.54193305 5.2338654,1.020251 5.0522544,1.521637 l -0.08789,-0.06836 c 0,0 -16.8060754,50.85964 11.4257806,88.55079 14.45868,21.892003 49.744015,43.959683 82.265625,54.427733 l 38.19336,41.88477 c -6.29197,-3.37166 -13.15733,-6.56654 -20.74414,-9.28516 -21.23721,-7.61001 -45.7712,-6.82709 -64.929689,-4.43945 -9.579243,1.19382 -17.818993,2.80162 -23.599609,4.00195 -2.890308,0.60016 -5.174273,1.09998 -6.654297,1.38672 -0.630226,0.1221 -1.023027,0.18097 -1.289063,0.21484 a 2.1089138,2.1089138 0 0 0 -2.451171,1.16407 c -0.153781,0.33778 -0.10706,0.97965 0.0625,1.57617 l -0.132813,-0.006 c 0,0 19.507545,56.8187 63.875002,72.91601 12.89825,5.55726 32.38855,7.27565 51.0957,3.85938 17.74732,-3.24099 34.78772,-11.26748 44.24219,-25.62891 25.72283,29.86621 49.3291,49.78417 71.21094,63.60156 -24.87542,-2.43819 -49.97512,-2.9012 -74.87305,-0.24804 a 2.1089138,2.1089138 0 0 0 -0.0996,0.0138 c -19.23922,2.98524 -34.0343,11.24075 -48.82031,21.29883 -14.78602,10.05807 -29.62697,21.92163 -49.23242,32.52539 a 2.1089138,2.1089138 0 0 0 -0.17383,0.10547 c -1.84574,1.24249 -4.88105,4.03641 -8.14844,6.71875 -1.63369,1.34116 -3.27701,2.62536 -4.664062,3.56054 -1.387048,0.93518 -2.680555,1.44579 -2.740235,1.45313 a 2.1089138,2.1089138 0 0 0 -0.806641,3.91406 c 36.501078,21.34784 72.823398,55.27065 109.105468,59.43164 69.1543,7.93092 133.82566,-42.10492 133.93945,-103.8164 13.67319,4.48768 26.66266,7.75425 38.96485,11.07617 24.26604,6.55246 39.86647,13.65641 62.7832,33.05078 22.63368,19.15483 40.77328,51.01403 67.77735,107.68164 a 2.1089138,2.1089138 0 0 0 2.38085,1.14648 l 23.29297,-5.41601 a 2.1089138,2.1089138 0 0 0 1.42578,-2.96094 c -27.56229,-57.83883 -52.83267,-91.85503 -78.08789,-113.22851 -25.26136,-21.37856 -50.25136,-29.58932 -75.16406,-36.31641 -5.81439,-1.57005 -8.44172,-1.5644 -10.65625,-1.5918 -1.41972,-0.0176 -3.11108,-0.22849 -5.36914,-0.70898 26.82472,-19.13647 37.31802,-62.96617 28.55859,-108.12305 -9.19139,-47.38375 -39.81933,-96.56154 -96.37109,-120.54687 a 2.1089138,2.1089138 0 0 0 -2.8125,1.23828 c -33.30734,94.1463 -6.21822,164.24492 32.85742,213.39257 -29.51283,-14.09091 -71.13225,-41.17308 -107.09961,-84.46093 29.72607,-30.87969 40.46198,-64.14702 33.66602,-97.54492 -6.90281,-33.922983 -31.5196,-67.765127 -71.25391,-99.986339 a 2.1089138,2.1089138 0 0 0 -3.23242,0.734374 c -18.48189,38.940072 -23.14925,70.215462 -19.47852,97.107425 2.58336,18.92575 9.32088,35.59982 18.0625,51.25782 L 113.99758,136.48453 C 113.89988,121.35814 111.12727,90.796967 91.542502,64.877097 78.001282,46.955702 56.739951,31.130166 39.046401,19.568512 30.199626,13.787686 22.240209,9.083888 16.608901,5.773591 13.793247,4.118441 11.553258,2.806399 10.11476,1.910309 9.4575288,1.500896 9.0215148,1.202944 8.7710108,1.017731 A 2.1089138,2.1089138 0 0 0 6.9409328,1.5304946e-4 Z"
         id="path8-2" />
    </symbol>
  </defs>
  <g
     id="layer1"
     transform="translate(-0.12884092,0.11518422)">
    <rect
       style="opacity:0.997963;fill:none;stroke-width:0.993182;stroke-linecap:round"
       id="rect2"
       width="46.12505"
       height="18.173859"
       x="0.12884092"
       y="0.25039461" />
    <rect
       style="opacity:0.997963;fill:#bbc7a4;fill-opacity:1;stroke-width:0.99565;stroke-linecap:round"
       id="rect3"
       width="46.382736"
       height="18.392052"
       x="0.12884092"
       y="-0.0037851967" />
    <use
       xlink:href="#sjjb-poi.svg:embassy2"
       width="497.85098"
       height="473.64471"
       style="fill:#000000;stroke:none"
       id="use1-9"
       transform="matrix(0.03856956,0,0,0.03863609,5.4909129,0.08589913)" />
    <use
       xlink:href="#sjjb-poi.svg:embassy2"
       width="497.85098"
       height="473.64471"
       style="fill:#000000;stroke:none"
       id="use14"
       transform="matrix(-0.02833242,0.01338382,0.01490019,0.02553694,31.053368,-0.20149725)" />
  </g>
</svg>
